<svg width="163" height="96" viewBox="0 0 163 96" fill="none" xmlns="http://www.w3.org/2000/svg">
<g filter="url(#filter0_d_3031_63942)">
<rect x="24" y="8" width="115" height="40" rx="8" fill="#20202C" shape-rendering="crispEdges"/>
<path d="M40.7861 20.68C40.7861 20.16 40.8781 19.652 41.0621 19.156C41.2541 18.652 41.5301 18.196 41.8901 17.788C42.2501 17.372 42.6901 17.044 43.2101 16.804C43.7301 16.556 44.3221 16.432 44.9861 16.432C45.7701 16.432 46.4461 16.604 47.0141 16.948C47.5901 17.292 48.0181 17.74 48.2981 18.292L47.0261 19.168C46.8821 18.848 46.6941 18.596 46.4621 18.412C46.2301 18.22 45.9821 18.088 45.7181 18.016C45.4541 17.936 45.1941 17.896 44.9381 17.896C44.5221 17.896 44.1581 17.98 43.8461 18.148C43.5421 18.316 43.2861 18.536 43.0781 18.808C42.8701 19.08 42.7141 19.384 42.6101 19.72C42.5141 20.056 42.4661 20.392 42.4661 20.728C42.4661 21.104 42.5261 21.468 42.6461 21.82C42.7661 22.164 42.9341 22.472 43.1501 22.744C43.3741 23.008 43.6381 23.22 43.9421 23.38C44.2541 23.532 44.5941 23.608 44.9621 23.608C45.2261 23.608 45.4941 23.564 45.7661 23.476C46.0381 23.388 46.2901 23.248 46.5221 23.056C46.7541 22.864 46.9341 22.616 47.0621 22.312L48.4181 23.092C48.2501 23.516 47.9741 23.876 47.5901 24.172C47.2141 24.468 46.7901 24.692 46.3181 24.844C45.8461 24.996 45.3781 25.072 44.9141 25.072C44.3061 25.072 43.7501 24.948 43.2461 24.7C42.7421 24.444 42.3061 24.108 41.9381 23.692C41.5781 23.268 41.2941 22.796 41.0861 22.276C40.8861 21.748 40.7861 21.216 40.7861 20.68ZM50.3086 27.712C50.1406 27.712 49.9686 27.692 49.7926 27.652C49.6246 27.612 49.4286 27.552 49.2046 27.472L49.5166 26.2C49.6366 26.256 49.7486 26.296 49.8526 26.32C49.9646 26.344 50.0646 26.356 50.1526 26.356C50.3526 26.356 50.5286 26.284 50.6806 26.14C50.8406 25.996 50.9686 25.776 51.0646 25.48L51.2566 24.964L48.7126 18.712H50.3806L52.0726 23.356L53.5606 18.712H55.0966L52.5286 25.9C52.3926 26.284 52.2126 26.608 51.9886 26.872C51.7646 27.144 51.5086 27.352 51.2206 27.496C50.9326 27.64 50.6286 27.712 50.3086 27.712ZM57.0023 18.712L58.3223 20.68L58.4183 20.896L58.5383 20.68L59.8463 18.712H61.5383L59.3543 21.844L61.5743 25H59.8823L58.5263 23.044L58.4183 22.84L58.3223 23.044L56.9783 25H55.2863L57.5063 21.88L55.3223 18.712H57.0023ZM65.2493 25.12C64.7373 25.12 64.2773 25.036 63.8693 24.868C63.4613 24.692 63.1133 24.452 62.8253 24.148C62.5453 23.844 62.3293 23.496 62.1773 23.104C62.0253 22.712 61.9493 22.3 61.9493 21.868C61.9493 21.428 62.0253 21.012 62.1773 20.62C62.3293 20.228 62.5453 19.88 62.8253 19.576C63.1133 19.272 63.4613 19.036 63.8693 18.868C64.2773 18.692 64.7373 18.604 65.2493 18.604C65.7613 18.604 66.2173 18.692 66.6173 18.868C67.0253 19.036 67.3733 19.272 67.6613 19.576C67.9493 19.88 68.1653 20.228 68.3093 20.62C68.4613 21.012 68.5373 21.428 68.5373 21.868C68.5373 22.3 68.4613 22.712 68.3093 23.104C68.1653 23.496 67.9493 23.844 67.6613 24.148C67.3813 24.452 67.0373 24.692 66.6293 24.868C66.2213 25.036 65.7613 25.12 65.2493 25.12ZM63.6053 21.868C63.6053 22.236 63.6773 22.564 63.8213 22.852C63.9653 23.132 64.1613 23.352 64.4093 23.512C64.6573 23.672 64.9373 23.752 65.2493 23.752C65.5533 23.752 65.8293 23.672 66.0773 23.512C66.3253 23.344 66.5213 23.12 66.6653 22.84C66.8173 22.552 66.8933 22.224 66.8933 21.856C66.8933 21.496 66.8173 21.172 66.6653 20.884C66.5213 20.596 66.3253 20.372 66.0773 20.212C65.8293 20.052 65.5533 19.972 65.2493 19.972C64.9373 19.972 64.6573 20.056 64.4093 20.224C64.1613 20.384 63.9653 20.608 63.8213 20.896C63.6773 21.176 63.6053 21.5 63.6053 21.868ZM72.5386 25.12C72.0346 25.12 71.5786 25.036 71.1706 24.868C70.7626 24.692 70.4146 24.456 70.1266 24.16C69.8386 23.856 69.6146 23.512 69.4546 23.128C69.3026 22.736 69.2266 22.324 69.2266 21.892C69.2266 21.292 69.3586 20.744 69.6226 20.248C69.8946 19.752 70.2786 19.356 70.7746 19.06C71.2786 18.756 71.8706 18.604 72.5506 18.604C73.2386 18.604 73.8266 18.756 74.3146 19.06C74.8026 19.356 75.1746 19.752 75.4306 20.248C75.6946 20.736 75.8266 21.264 75.8266 21.832C75.8266 21.928 75.8226 22.028 75.8146 22.132C75.8066 22.228 75.7986 22.308 75.7906 22.372H70.9306C70.9626 22.692 71.0546 22.972 71.2066 23.212C71.3666 23.452 71.5666 23.636 71.8066 23.764C72.0546 23.884 72.3186 23.944 72.5986 23.944C72.9186 23.944 73.2186 23.868 73.4986 23.716C73.7866 23.556 73.9826 23.348 74.0866 23.092L75.4666 23.476C75.3146 23.796 75.0946 24.08 74.8066 24.328C74.5266 24.576 74.1946 24.772 73.8106 24.916C73.4266 25.052 73.0026 25.12 72.5386 25.12ZM70.8946 21.352H74.1826C74.1506 21.032 74.0586 20.756 73.9066 20.524C73.7626 20.284 73.5706 20.1 73.3306 19.972C73.0906 19.836 72.8226 19.768 72.5266 19.768C72.2386 19.768 71.9746 19.836 71.7346 19.972C71.5026 20.1 71.3106 20.284 71.1586 20.524C71.0146 20.756 70.9266 21.032 70.8946 21.352ZM79.173 26.524V23.596H79.341C79.501 23.596 79.649 23.552 79.785 23.464C79.929 23.376 80.053 23.228 80.157 23.02C80.269 22.804 80.357 22.508 80.421 22.132C80.493 21.756 80.541 21.276 80.565 20.692L80.637 18.712H85.353V23.596H86.229V26.524H84.825V25H80.589V26.524H79.173ZM81.369 23.596H83.745V20.068H82.041L82.005 20.848C81.981 21.376 81.941 21.824 81.885 22.192C81.837 22.552 81.769 22.848 81.681 23.08C81.601 23.304 81.497 23.476 81.369 23.596ZM90.1871 25.12C89.6831 25.12 89.2271 25.036 88.8191 24.868C88.4111 24.692 88.0631 24.456 87.7751 24.16C87.4871 23.856 87.2631 23.512 87.1031 23.128C86.9511 22.736 86.8751 22.324 86.8751 21.892C86.8751 21.292 87.0071 20.744 87.2711 20.248C87.5431 19.752 87.9271 19.356 88.4231 19.06C88.9271 18.756 89.5191 18.604 90.1991 18.604C90.8871 18.604 91.4751 18.756 91.9631 19.06C92.4511 19.356 92.8231 19.752 93.0791 20.248C93.3431 20.736 93.4751 21.264 93.4751 21.832C93.4751 21.928 93.4711 22.028 93.4631 22.132C93.4551 22.228 93.4471 22.308 93.4391 22.372H88.5791C88.6111 22.692 88.7031 22.972 88.8551 23.212C89.0151 23.452 89.2151 23.636 89.4551 23.764C89.7031 23.884 89.9671 23.944 90.2471 23.944C90.5671 23.944 90.8671 23.868 91.1471 23.716C91.4351 23.556 91.6311 23.348 91.7351 23.092L93.1151 23.476C92.9631 23.796 92.7431 24.08 92.4551 24.328C92.1751 24.576 91.8431 24.772 91.4591 24.916C91.0751 25.052 90.6511 25.12 90.1871 25.12ZM88.5431 21.352H91.8311C91.7991 21.032 91.7071 20.756 91.5551 20.524C91.4111 20.284 91.2191 20.1 90.9791 19.972C90.7391 19.836 90.4711 19.768 90.1751 19.768C89.8871 19.768 89.6231 19.836 89.3831 19.972C89.1511 20.1 88.9591 20.284 88.8071 20.524C88.6631 20.756 88.5751 21.032 88.5431 21.352ZM98.2227 25.12C97.7347 25.12 97.3027 25.012 96.9267 24.796C96.5587 24.572 96.2707 24.272 96.0627 23.896V27.556H94.4547V18.712H95.8587V19.792C96.0987 19.424 96.4027 19.136 96.7707 18.928C97.1387 18.712 97.5587 18.604 98.0307 18.604C98.4547 18.604 98.8427 18.688 99.1947 18.856C99.5547 19.024 99.8667 19.26 100.131 19.564C100.395 19.86 100.599 20.204 100.743 20.596C100.895 20.98 100.971 21.396 100.971 21.844C100.971 22.452 100.851 23.004 100.611 23.5C100.379 23.996 100.055 24.392 99.6387 24.688C99.2307 24.976 98.7587 25.12 98.2227 25.12ZM97.6827 23.752C97.9307 23.752 98.1547 23.7 98.3547 23.596C98.5547 23.492 98.7267 23.352 98.8707 23.176C99.0227 22.992 99.1347 22.788 99.2067 22.564C99.2867 22.332 99.3267 22.092 99.3267 21.844C99.3267 21.58 99.2827 21.336 99.1947 21.112C99.1147 20.888 98.9947 20.692 98.8347 20.524C98.6747 20.348 98.4867 20.212 98.2707 20.116C98.0627 20.02 97.8347 19.972 97.5867 19.972C97.4347 19.972 97.2787 20 97.1187 20.056C96.9667 20.104 96.8187 20.176 96.6747 20.272C96.5307 20.368 96.4027 20.48 96.2907 20.608C96.1867 20.736 96.1107 20.876 96.0627 21.028V22.504C96.1587 22.736 96.2867 22.948 96.4467 23.14C96.6147 23.332 96.8067 23.484 97.0227 23.596C97.2387 23.7 97.4587 23.752 97.6827 23.752ZM104.976 25.12C104.472 25.12 104.016 25.036 103.608 24.868C103.2 24.692 102.852 24.456 102.564 24.16C102.276 23.856 102.052 23.512 101.892 23.128C101.74 22.736 101.664 22.324 101.664 21.892C101.664 21.292 101.796 20.744 102.06 20.248C102.332 19.752 102.716 19.356 103.212 19.06C103.716 18.756 104.308 18.604 104.988 18.604C105.676 18.604 106.264 18.756 106.752 19.06C107.24 19.356 107.612 19.752 107.868 20.248C108.132 20.736 108.264 21.264 108.264 21.832C108.264 21.928 108.26 22.028 108.252 22.132C108.244 22.228 108.236 22.308 108.228 22.372H103.368C103.4 22.692 103.492 22.972 103.644 23.212C103.804 23.452 104.004 23.636 104.244 23.764C104.492 23.884 104.756 23.944 105.036 23.944C105.356 23.944 105.656 23.868 105.936 23.716C106.224 23.556 106.42 23.348 106.524 23.092L107.904 23.476C107.752 23.796 107.532 24.08 107.244 24.328C106.964 24.576 106.632 24.772 106.248 24.916C105.864 25.052 105.44 25.12 104.976 25.12ZM103.332 21.352H106.62C106.588 21.032 106.496 20.756 106.344 20.524C106.2 20.284 106.008 20.1 105.768 19.972C105.528 19.836 105.26 19.768 104.964 19.768C104.676 19.768 104.412 19.836 104.172 19.972C103.94 20.1 103.748 20.284 103.596 20.524C103.452 20.756 103.364 21.032 103.332 21.352ZM109.244 25V18.712H112.748C113.18 18.712 113.528 18.784 113.792 18.928C114.064 19.072 114.264 19.26 114.392 19.492C114.52 19.724 114.584 19.972 114.584 20.236C114.584 20.588 114.504 20.896 114.344 21.16C114.192 21.424 113.952 21.628 113.624 21.772C113.992 21.876 114.292 22.056 114.524 22.312C114.756 22.56 114.872 22.888 114.872 23.296C114.872 23.688 114.78 24.012 114.596 24.268C114.412 24.516 114.148 24.7 113.804 24.82C113.46 24.94 113.052 25 112.58 25H109.244ZM110.768 23.908H112.532C112.676 23.908 112.808 23.872 112.928 23.8C113.048 23.728 113.14 23.632 113.204 23.512C113.276 23.392 113.312 23.26 113.312 23.116C113.312 22.964 113.28 22.832 113.216 22.72C113.152 22.6 113.06 22.508 112.94 22.444C112.828 22.372 112.696 22.336 112.544 22.336H110.768V23.908ZM110.768 21.328H112.34C112.484 21.328 112.612 21.292 112.724 21.22C112.836 21.148 112.92 21.052 112.976 20.932C113.04 20.812 113.072 20.68 113.072 20.536C113.072 20.328 113.004 20.156 112.868 20.02C112.74 19.876 112.568 19.804 112.352 19.804H110.768V21.328ZM118.945 25.12C118.433 25.12 117.973 25.036 117.565 24.868C117.157 24.692 116.809 24.452 116.521 24.148C116.241 23.844 116.025 23.496 115.873 23.104C115.721 22.712 115.645 22.3 115.645 21.868C115.645 21.428 115.721 21.012 115.873 20.62C116.025 20.228 116.241 19.88 116.521 19.576C116.809 19.272 117.157 19.036 117.565 18.868C117.973 18.692 118.433 18.604 118.945 18.604C119.457 18.604 119.913 18.692 120.313 18.868C120.721 19.036 121.069 19.272 121.357 19.576C121.645 19.88 121.861 20.228 122.005 20.62C122.157 21.012 122.233 21.428 122.233 21.868C122.233 22.3 122.157 22.712 122.005 23.104C121.861 23.496 121.645 23.844 121.357 24.148C121.077 24.452 120.733 24.692 120.325 24.868C119.917 25.036 119.457 25.12 118.945 25.12ZM117.301 21.868C117.301 22.236 117.373 22.564 117.517 22.852C117.661 23.132 117.857 23.352 118.105 23.512C118.353 23.672 118.633 23.752 118.945 23.752C119.249 23.752 119.525 23.672 119.773 23.512C120.021 23.344 120.217 23.12 120.361 22.84C120.513 22.552 120.589 22.224 120.589 21.856C120.589 21.496 120.513 21.172 120.361 20.884C120.217 20.596 120.021 20.372 119.773 20.212C119.525 20.052 119.249 19.972 118.945 19.972C118.633 19.972 118.353 20.056 118.105 20.224C117.857 20.384 117.661 20.608 117.517 20.896C117.373 21.176 117.301 21.5 117.301 21.868Z" fill="white"/>
<path d="M48.7071 39.12C48.2351 39.12 47.8071 39.036 47.4231 38.868C47.0391 38.692 46.7071 38.456 46.4271 38.16C46.1471 37.856 45.9311 37.508 45.7791 37.116C45.6271 36.724 45.5511 36.312 45.5511 35.88C45.5511 35.44 45.6271 35.024 45.7791 34.632C45.9311 34.24 46.1471 33.896 46.4271 33.6C46.7071 33.296 47.0391 33.06 47.4231 32.892C47.8151 32.716 48.2431 32.628 48.7071 32.628C49.1791 32.628 49.6071 32.716 49.9911 32.892C50.3751 33.06 50.7071 33.296 50.9871 33.6C51.2751 33.896 51.4951 34.24 51.6471 34.632C51.7991 35.024 51.8751 35.44 51.8751 35.88C51.8751 36.312 51.7991 36.724 51.6471 37.116C51.4951 37.508 51.2791 37.856 50.9991 38.16C50.7191 38.456 50.3831 38.692 49.9911 38.868C49.6071 39.036 49.1791 39.12 48.7071 39.12ZM46.6311 35.892C46.6311 36.324 46.7231 36.716 46.9071 37.068C47.0991 37.42 47.3511 37.7 47.6631 37.908C47.9751 38.108 48.3231 38.208 48.7071 38.208C49.0911 38.208 49.4391 38.104 49.7511 37.896C50.0711 37.688 50.3231 37.408 50.5071 37.056C50.6991 36.696 50.7951 36.3 50.7951 35.868C50.7951 35.436 50.6991 35.044 50.5071 34.692C50.3231 34.34 50.0711 34.06 49.7511 33.852C49.4391 33.644 49.0911 33.54 48.7071 33.54C48.3231 33.54 47.9751 33.648 47.6631 33.864C47.3511 34.072 47.0991 34.352 46.9071 34.704C46.7231 35.056 46.6311 35.452 46.6311 35.892ZM54.6787 39V33.672H52.5187V32.736H57.8947V33.672H55.7347V39H54.6787ZM61.1387 35.94V34.98H64.5107V35.94H61.1387ZM61.1387 37.548V36.708H65.1107V37.548H61.1387ZM62.1467 39V30.48H65.0987C65.5067 30.48 65.8667 30.56 66.1787 30.72C66.4987 30.872 66.7707 31.08 66.9947 31.344C67.2187 31.6 67.3867 31.892 67.4987 32.22C67.6187 32.54 67.6787 32.868 67.6787 33.204C67.6787 33.668 67.5827 34.112 67.3907 34.536C67.1987 34.952 66.9147 35.292 66.5387 35.556C66.1707 35.812 65.7147 35.94 65.1707 35.94H63.2267V39H62.1467ZM63.2267 34.98H65.1107C65.4867 34.98 65.7827 34.9 65.9987 34.74C66.2147 34.58 66.3667 34.364 66.4547 34.092C66.5427 33.82 66.5867 33.524 66.5867 33.204C66.5867 32.868 66.5307 32.568 66.4187 32.304C66.3147 32.032 66.1467 31.82 65.9147 31.668C65.6827 31.516 65.3867 31.44 65.0267 31.44H63.2267V34.98ZM72.3379 39V36.828H68.3299V35.88L72.6619 30.48H73.3939V35.868H74.4499V36.828H73.3939V39H72.3379ZM69.4339 35.868H72.4459V32.1L69.4339 35.868ZM78.1356 39.12C77.5276 39.12 76.9796 38.976 76.4916 38.688C76.0116 38.4 75.6436 38.012 75.3876 37.524L76.0476 36.948C76.2716 37.316 76.5676 37.612 76.9356 37.836C77.3116 38.06 77.7156 38.172 78.1476 38.172C78.5156 38.172 78.8436 38.092 79.1316 37.932C79.4196 37.772 79.6476 37.552 79.8156 37.272C79.9836 36.992 80.0676 36.668 80.0676 36.3C80.0676 35.94 79.9836 35.624 79.8156 35.352C79.6556 35.08 79.4356 34.868 79.1556 34.716C78.8836 34.556 78.5756 34.476 78.2316 34.476C77.8956 34.476 77.5756 34.552 77.2716 34.704C76.9676 34.856 76.7236 35.072 76.5396 35.352H75.5796L76.5396 30.48H80.6796V31.452H77.3196L76.8036 34.164C76.9796 33.972 77.1996 33.824 77.4636 33.72C77.7356 33.616 78.0356 33.564 78.3636 33.564C78.8916 33.564 79.3636 33.68 79.7796 33.912C80.2036 34.144 80.5356 34.464 80.7756 34.872C81.0236 35.272 81.1476 35.74 81.1476 36.276C81.1476 36.836 81.0116 37.332 80.7396 37.764C80.4756 38.188 80.1156 38.52 79.6596 38.76C79.2116 39 78.7036 39.12 78.1356 39.12ZM88.367 36.18C88.367 35.644 88.235 35.16 87.971 34.728C87.715 34.296 87.363 33.952 86.915 33.696C86.475 33.44 85.979 33.312 85.427 33.312C85.099 33.312 84.787 33.368 84.491 33.48C84.203 33.592 83.951 33.752 83.735 33.96C83.519 34.16 83.351 34.4 83.231 34.68C83.239 33.976 83.331 33.376 83.507 32.88C83.691 32.384 83.947 32.004 84.275 31.74C84.603 31.476 84.983 31.344 85.415 31.344C85.839 31.344 86.223 31.456 86.567 31.68C86.911 31.896 87.171 32.192 87.347 32.568L87.995 31.932C87.739 31.46 87.383 31.092 86.927 30.828C86.479 30.556 85.979 30.42 85.427 30.42C84.787 30.42 84.227 30.608 83.747 30.984C83.267 31.352 82.895 31.908 82.631 32.652C82.367 33.396 82.235 34.328 82.235 35.448C82.235 36.208 82.363 36.864 82.619 37.416C82.883 37.968 83.247 38.392 83.711 38.688C84.175 38.976 84.711 39.12 85.319 39.12C85.895 39.12 86.411 38.988 86.867 38.724C87.331 38.46 87.695 38.108 87.959 37.668C88.231 37.22 88.367 36.724 88.367 36.18ZM85.331 38.208C84.963 38.208 84.623 38.116 84.311 37.932C84.007 37.748 83.763 37.504 83.579 37.2C83.395 36.888 83.303 36.548 83.303 36.18C83.303 35.812 83.395 35.476 83.579 35.172C83.763 34.868 84.007 34.624 84.311 34.44C84.623 34.256 84.963 34.164 85.331 34.164C85.699 34.164 86.035 34.256 86.339 34.44C86.651 34.624 86.899 34.868 87.083 35.172C87.267 35.476 87.359 35.812 87.359 36.18C87.359 36.548 87.267 36.888 87.083 37.2C86.899 37.504 86.651 37.748 86.339 37.932C86.035 38.116 85.699 38.208 85.331 38.208ZM89.7884 39.972L90.0284 38.904H89.6684V37.656H90.6644V38.904L90.3044 39.972H89.7884ZM95.5716 39.12C94.9876 39.104 94.4716 38.964 94.0236 38.7C93.5756 38.436 93.1996 38.092 92.8956 37.668C92.5996 37.236 92.3756 36.772 92.2236 36.276C92.0716 35.772 91.9956 35.28 91.9956 34.8C91.9956 34.288 92.0756 33.776 92.2356 33.264C92.4036 32.752 92.6436 32.288 92.9556 31.872C93.2676 31.448 93.6436 31.112 94.0836 30.864C94.5236 30.608 95.0196 30.48 95.5716 30.48C96.1636 30.48 96.6796 30.616 97.1196 30.888C97.5676 31.16 97.9396 31.512 98.2356 31.944C98.5396 32.376 98.7676 32.844 98.9196 33.348C99.0716 33.852 99.1476 34.336 99.1476 34.8C99.1476 35.32 99.0636 35.836 98.8956 36.348C98.7356 36.852 98.4996 37.312 98.1876 37.728C97.8756 38.144 97.4996 38.48 97.0596 38.736C96.6196 38.984 96.1236 39.112 95.5716 39.12ZM93.0876 34.8C93.1036 35.192 93.1636 35.584 93.2676 35.976C93.3716 36.368 93.5276 36.728 93.7356 37.056C93.9436 37.384 94.1996 37.648 94.5036 37.848C94.8076 38.048 95.1636 38.148 95.5716 38.148C95.9956 38.148 96.3636 38.044 96.6756 37.836C96.9876 37.62 97.2436 37.344 97.4436 37.008C97.6516 36.664 97.8036 36.3 97.8996 35.916C98.0036 35.524 98.0556 35.152 98.0556 34.8C98.0556 34.408 97.9996 34.016 97.8876 33.624C97.7836 33.232 97.6236 32.872 97.4076 32.544C97.1916 32.216 96.9316 31.952 96.6276 31.752C96.3236 31.552 95.9716 31.452 95.5716 31.452C95.1476 31.452 94.7796 31.56 94.4676 31.776C94.1556 31.984 93.8956 32.26 93.6876 32.604C93.4876 32.94 93.3356 33.304 93.2316 33.696C93.1356 34.08 93.0876 34.448 93.0876 34.8ZM106.742 30.48L100.982 39H99.8064L105.554 30.48H106.742ZM107.565 39V32.736H108.621V35.316H109.317L111.285 32.736H112.485L110.145 35.772L112.761 39H111.537L109.317 36.288H108.621V39H107.565ZM113.787 39V32.736H117.651V33.672H114.843V39H113.787Z" fill="white"/>
<path d="M90 48L82 56L74 48H90Z" fill="#20202C"/>
</g>
<defs>
<filter id="filter0_d_3031_63942" x="0" y="0" width="163" height="96" filterUnits="userSpaceOnUse" color-interpolation-filters="sRGB">
<feFlood flood-opacity="0" result="BackgroundImageFix"/>
<feColorMatrix in="SourceAlpha" type="matrix" values="0 0 0 0 0 0 0 0 0 0 0 0 0 0 0 0 0 0 127 0" result="hardAlpha"/>
<feOffset dy="16"/>
<feGaussianBlur stdDeviation="12"/>
<feComposite in2="hardAlpha" operator="out"/>
<feColorMatrix type="matrix" values="0 0 0 0 0 0 0 0 0 0 0 0 0 0 0 0 0 0 0.16 0"/>
<feBlend mode="normal" in2="BackgroundImageFix" result="effect1_dropShadow_3031_63942"/>
<feBlend mode="normal" in="SourceGraphic" in2="effect1_dropShadow_3031_63942" result="shape"/>
</filter>
</defs>
</svg>
